# xmcd CD database file
#
# Track frame offsets:
#	150
#	23481
#	43122
#	65065
#	86419
#	108805
#	127951
#	144785
#	165520
#	183416
#	198397
#	215613
#	241757
#	268259
#	285495
#	303028
#	317452
#
# Disc length: 4602 seconds
#
# Revision: 3
# Processed by: cddbd v1.4PL0 Copyright (c) Steve Scherf et al.
# Submitted via: CDex 1.50Beta7
#
DISCID=de11f811
DTITLE=Abba - The definitive collection -- CD2
DYEAR=2001
DGENRE=Rock
TTITLE0=Voulez-vous
TTITLE1=Angeleyes
TTITLE2=Gimme ! Gimme ! Gimme !
TTITLE3=I have a dream
TTITLE4=The winner takes it all
TTITLE5=Super trouper
TTITLE6=On and on and on
TTITLE7=Lay all your love on me
TTITLE8=One of us
TTITLE9=When all is said and done
TTITLE10=Head over heels
TTITLE11=The visitors
TTITLE12=The day before you came
TTITLE13=Under attack
TTITLE14=Thank you for the music
TTITLE15=Ring ring (1974 remix)
TTITLE16=Voulez-vous (extended remix)
EXTD=YEAR: 2001
EXTT0=
EXTT1=
EXTT2=
EXTT3=
EXTT4=
EXTT5=
EXTT6=
EXTT7=
EXTT8=
EXTT9=
EXTT10=
EXTT11=
EXTT12=
EXTT13=
EXTT14=
EXTT15=
EXTT16=
PLAYORDER=
